<svg xmlns="http://www.w3.org/2000/svg" width="293" height="143" viewBox="0 0 293 143">
    <path fill="#FFF" fill-rule="evenodd" d="M21.834 64.738c2.254-.214 5.566-.55 9.727-1.276 1.56-.262 3.273-.59 5.06-.953 9.402-1.386 31.168-6.75 47.503-17.145 16.944-10.78 26.697-27.857 26.697-27.857s-.368.302-1.025.845c.346-.317.688-.61 1.025-.845.586-.409 1.127-.7 1.708-.906.295-.096.594-.189.929-.252l.253-.05.023-.004.214-.03.203-.027.034.005.117-.005c1.014-.064 2.594.33 4.667 1.089 2.07.703 4.59 1.828 8.156 2.152.47.036.82.054 1.423.056l.896-.006.45-.004.55-.02c.366-.02.731-.022 1.096-.052 1.417-.087 3.02-.263 4.738-.76 1.729-.486 3.335-1.325 4.475-2.041 1.16-.729 2.044-1.351 2.934-1.942l.663-.432.265-.175.364-.227.704-.43.548-.31c.772-.422 1.453-.714 1.868-.802.22-.05.428-.085.758-.105.34-.016.78-.016 1.339 0 1.104.035 2.467.088 3.793.078l.504-.008.253-.002.426-.013.447-.027.226-.012.395-.038.798-.094.7-.124c.46-.078.919-.212 1.374-.333a14.74 14.74 0 0 0 4.658-2.36s20.438 44.417 82.425 48.74c5.89.787 11.085 1.023 15.338 1.049 4.262.035 7.588-.276 9.833-.398 2.252-.159 3.453-.242 3.453-.242s-1.203-.082-3.457-.24c-2.261-.143-5.555-.327-9.692-.787-4.136-.483-9.106-1.296-14.693-2.529a159.016 159.016 0 0 1-18.235-5.37c-6.466-2.372-13.244-5.368-19.852-9.143-3.291-1.872-6.596-3.975-9.629-6.252-.74-.53-1.567-1.213-2.369-1.823-.633-.53-1.403-1.149-2.091-1.789-1.417-1.267-2.81-2.648-4.181-4.08-5.482-5.748-10.78-12.148-16.104-18.708l-2.018-2.467a39.448 39.448 0 0 0-1.134-1.353c-.44-.49-.884-.975-1.501-1.519-.633-.532-1.267-1.132-2.718-1.77-.76-.304-1.715-.603-2.932-.614-1.154-.024-2.35.279-3.063.601-.434.175-.661.316-.989.488-.226.139-.505.31-.676.433-.389.273-.69.508-.932.7-.495.397-.843.68-1.152.903-.615.443-1.016.614-1.467.749-.12.018-.225.061-.358.075l-.18.032a.762.762 0 0 0-.096.007l-.049.013-.223.011-.377.015h-.099l-.199.003h-.397c-1.072.004-2.11-.042-3.41-.092a29.446 29.446 0 0 0-2.265 0c-.872.042-1.857.163-2.797.377-1.911.446-3.359 1.156-4.607 1.816l-.954.538-.758.455-.813.51-.765.493c-1.008.654-1.96 1.338-2.726 1.818-.783.49-1.249.711-1.794.88-.55.166-1.334.294-2.296.354-.23.022-.46.022-.69.035l-.347.02-.443.007-.894.015c.006-.007-.239-.007-.358-.02-1.218-.07-3.083-.675-5.371-1.48-1.16-.393-2.439-.822-3.937-1.147-1.489-.327-3.215-.56-5.042-.445-.208.006-.494.035-.758.063l-.402.048-.235.032-.212.035-.258.04-.15.03-.6.127c-.801.177-1.604.42-2.38.707a16.076 16.076 0 0 0-4.119 2.295c-2.312 1.793-3.738 3.66-5.053 5.361-1.213 1.644-2.418 3.276-3.613 4.898-2.299 3.121-4.732 6.016-7.379 8.646a83.826 83.826 0 0 1-8.454 7.395 107.348 107.348 0 0 1-9 6.24 137.095 137.095 0 0 1-9.063 5.23 146.56 146.56 0 0 1-8.812 4.262c-2.85 1.29-5.603 2.451-8.233 3.467-5.274 2.018-9.996 3.582-13.948 4.745-3.957 1.147-7.123 1.96-9.295 2.457l-3.348.761.882-.06c.583-.044 1.45-.086 2.575-.206zM148.05 86.772c-4.542 9.884-12.6 25.321-12.652 25.402a50058.915 50058.915 0 0 1-15.705-33.903c-.44-.69-1.017-1.069-1.87-1.195l-16.134-.348c.482 1.105 20.319 42.288 30.505 63.087a5.6 5.6 0 0 1 .093.14c.398.603 3.403 4.064 6.126-.33l.009.006c9.246-18.877 30.742-63.116 30.742-63.116-7.83 0-15.83-.167-21.114 10.257zm-15.782 53.195a8.076 8.076 0 0 0-.074-.152c-.226-.338.074.152.074.152zm116.214-19.095c2.826-6.093 5.547-11.949 8.55-18.417 3.006 6.468 5.727 12.324 8.551 18.417h-17.101zm10.67-42.523c-.376-.729-1.18-1.576-2.12-1.624h-.002c-.934.048-1.738.895-2.114 1.624-10.744 20.761-32.698 63.267-33.085 64.159h13.788c3.968-.437 5.064-4.269 6.133-6.046.424-.878.854-1.752 1.336-2.596.449-.776 1.576-1.658 2.415-1.658 1.39 0 6.096-.023 10.919-.043 6.042.02 10.755.043 12.143.043 1.026 0 1.966.882 2.413 1.658.314.552 2.993 8.642 9.119 8.642h12.14c-.388-.892-22.34-43.398-33.084-64.16zm-55.548 61.618c-.024-.051-.05-.104-.075-.152-.226-.338.075.152.075.152zm15.78-53.195c-4.541 9.884-12.599 25.321-12.651 25.402a56929.172 56929.172 0 0 1-15.704-33.903c-.44-.69-1.018-1.069-1.872-1.195l-16.132-.348c.48 1.105 20.318 42.288 30.504 63.087a5.6 5.6 0 0 1 .093.14c.397.603 3.404 4.064 6.127-.33l.007.006c9.248-18.877 30.742-63.116 30.742-63.116-7.828 0-15.827-.167-21.113 10.257zm-144.015 34.1c2.827-6.093 5.549-11.949 8.552-18.417 3.004 6.468 5.726 12.324 8.55 18.417H75.369zm8.552-44.147h-.002c-.936.048-1.738.895-2.115 1.624-10.744 20.761-32.698 63.267-33.086 64.159h13.789c3.967-.437 5.063-4.269 6.133-6.046.424-.878.854-1.752 1.337-2.596.448-.776 1.574-1.658 2.415-1.658 1.388 0 6.095-.023 10.917-.043 6.043.02 10.755.043 12.144.043 1.026 0 1.966.882 2.413 1.658.314.552 2.992 8.642 9.118 8.642h12.142c-.39-.892-22.342-43.398-33.086-64.16-.377-.728-1.18-1.575-2.12-1.623zm-39.502 51.618H16.467c0-17.71-.812-32.247-.812-49.65H0v63.328c12.761 0 34 .034 34 .034 9.785 0 13.462-13.692 13.462-13.692h-3.05c.002-.007.006-.013.007-.02zm238.002-46.42h1.11c1.07 0 1.39.189 1.39.728 0 .71-.25.932-1.124.932h-1.376v-1.66zm0 2.909h.73l1.558 2.886h1.73l-1.675-3.045c1.018-.067 1.805-.569 1.805-1.869 0-1.609-1.092-2.125-2.986-2.125h-2.736v7.039h1.574v-2.886zm1.126-5.523c2.626 0 4.808 1.988 4.808 4.897 0 2.907-2.182 4.897-4.808 4.897-2.683 0-4.806-1.99-4.806-4.897 0-2.909 2.123-4.897 4.806-4.897zm0 11.314c3.574 0 6.845-2.386 6.845-6.417 0-4.029-3.27-6.42-6.845-6.42-3.573 0-6.844 2.391-6.844 6.42 0 4.03 3.271 6.417 6.844 6.417z"/>
</svg>
