<svg id="Layer_1" data-name="Layer 1" xmlns="http://www.w3.org/2000/svg" viewBox="0 0 75.1 74.76"><defs><style>.cls-1{fill:#f073ac;}</style></defs><title>chart-your-glow-icon</title><path class="cls-1" d="M36.95.57C29.1-.17-5.7-1.18.8,39.86L.93,41A70.69,70.69,0,0,0,2.85,51.4h0a46.78,46.78,0,0,0,2.4,6.87A50.76,50.76,0,0,0,13.1,70.57l.53.63,5.73-1.48a36.69,36.69,0,0,0,18.35,5h.46a36.69,36.69,0,0,0,18.35-5l5.73,1.48.53-.63A50.76,50.76,0,0,0,70.6,58.27c2.35-5.35,3.45-10.38,4.24-17l.12-1,.08-.65q0-1.25.06-2.45C75.49-4.17,43-.48,36.95.57ZM66,23,68,21.51a.37.37,0,0,1,.33-.06l.09,0a.33.33,0,0,1,.15.19l.1.3,1.7,5.15a.37.37,0,0,1-.05.34.35.35,0,0,1-.31.15l-2-.06-2.33-.07a1.57,1.57,0,0,0,0-.35l-.86-2.62a1.59,1.59,0,0,0-.17-.31Zm-4.49,2.16h0l1.5-.49h0l.11,0a.36.36,0,0,1,.16,0,.36.36,0,0,1,.18.21L64,26.23h0l.42,1.29a.36.36,0,0,1,0,.28.36.36,0,0,1-.2.18h0l-1,.32-.53.17h0a.36.36,0,0,1-.45-.23L61.77,27h0l0-.12-.4-1.21A.36.36,0,0,1,61.56,25.17Zm-6.11.51a.37.37,0,0,1,.29-.15h0l4.35.14a1.53,1.53,0,0,0,0,.35L61,28.64a1.58,1.58,0,0,0,.17.31l-3.42,2.7a.37.37,0,0,1-.58-.17L55.39,26A.37.37,0,0,1,55.45,25.68ZM72.38,40.47a34.52,34.52,0,0,1-68.78.76h0c0-.07,0-.14,0-.22L4,40.87c6.26-2.09,21.29-8.07,29.41-19.44,4.47,5.1,18,18.48,37,19,.6,0,1.21,0,1.82,0h.17Z" transform="translate(0)"/><circle class="cls-1" cx="23.41" cy="45.82" r="3.14"/><circle class="cls-1" cx="52.46" cy="45.82" r="3.14"/><path class="cls-1" d="M41.81,58.85a1.06,1.06,0,0,0-1.06,1.06c0,.5-1.06,1.25-2.66,1.25h-.38c-1.6,0-2.66-.75-2.66-1.25a1.06,1.06,0,1,0-2.12,0c0,1.89,2.1,3.37,4.78,3.37h.38c2.68,0,4.78-1.48,4.78-3.37A1.06,1.06,0,0,0,41.81,58.85Z" transform="translate(0)"/></svg>